<svg width="46" height="45" viewBox="0 0 46 45" fill="none" xmlns="http://www.w3.org/2000/svg">
<circle cx="22.5" cy="22.5076" r="22.5" fill="#E3C892"/>
<path d="M22.7461 22.8332C21.3711 22.8332 20.194 22.3436 19.2148 21.3645C18.2357 20.3853 17.7461 19.2082 17.7461 17.8332C17.7461 16.4582 18.2357 15.2811 19.2148 14.302C20.194 13.3228 21.3711 12.8332 22.7461 12.8332C24.1211 12.8332 25.2982 13.3228 26.2773 14.302C27.2565 15.2811 27.7461 16.4582 27.7461 17.8332C27.7461 19.2082 27.2565 20.3853 26.2773 21.3645C25.2982 22.3436 24.1211 22.8332 22.7461 22.8332ZM12.7461 32.8332V29.3332C12.7461 28.6249 12.9284 27.9738 13.293 27.3801C13.6576 26.7863 14.1419 26.3332 14.7461 26.0207C16.0378 25.3749 17.3503 24.8905 18.6836 24.5676C20.0169 24.2447 21.3711 24.0832 22.7461 24.0832C24.1211 24.0832 25.4753 24.2447 26.8086 24.5676C28.1419 24.8905 29.4544 25.3749 30.7461 26.0207C31.3503 26.3332 31.8346 26.7863 32.1992 27.3801C32.5638 27.9738 32.7461 28.6249 32.7461 29.3332V32.8332H12.7461ZM15.2461 30.3332H30.2461V29.3332C30.2461 29.1041 30.1888 28.8957 30.0742 28.7082C29.9596 28.5207 29.8086 28.3749 29.6211 28.2707C28.4961 27.7082 27.3607 27.2863 26.2148 27.0051C25.069 26.7238 23.9128 26.5832 22.7461 26.5832C21.5794 26.5832 20.4232 26.7238 19.2773 27.0051C18.1315 27.2863 16.9961 27.7082 15.8711 28.2707C15.6836 28.3749 15.5326 28.5207 15.418 28.7082C15.3034 28.8957 15.2461 29.1041 15.2461 29.3332V30.3332ZM22.7461 20.3332C23.4336 20.3332 24.0221 20.0884 24.5117 19.5988C25.0013 19.1093 25.2461 18.5207 25.2461 17.8332C25.2461 17.1457 25.0013 16.5572 24.5117 16.0676C24.0221 15.578 23.4336 15.3332 22.7461 15.3332C22.0586 15.3332 21.4701 15.578 20.9805 16.0676C20.4909 16.5572 20.2461 17.1457 20.2461 17.8332C20.2461 18.5207 20.4909 19.1093 20.9805 19.5988C21.4701 20.0884 22.0586 20.3332 22.7461 20.3332Z" fill="#011267"/>
</svg>
